<svg xmlns="http://www.w3.org/2000/svg" xmlns:xlink="http://www.w3.org/1999/xlink" width="60" height="60" viewBox="0 0 24 24" fill="none">
<path d="M7.95145 21.9973C6.65836 22.0134 5.41145 21.527 4.4835 20.645C3.55555 19.7631 3.02214 18.5574 3 17.2913L3 6.50984C3.01836 5.29838 3.52641 4.14331 4.41288 3.29802C5.29935 2.45273 6.4919 1.98617 7.72917 2.00031L13.3247 2.00031C13.4503 2.00028 13.5709 2.04876 13.6608 2.13474C13.7506 2.22071 13.8025 2.33749 13.8053 2.46046L13.8053 5.68032C13.8224 6.57666 14.1999 7.43033 14.8559 8.05572C15.5119 8.6811 16.3934 9.02809 17.309 9.02081C17.7571 9.02081 18.15 9.02081 18.4973 9.02081L19.7697 9.02081C20.01 9.02081 20.2839 9.02081 20.5278 9.02081C20.5889 9.01988 20.6496 9.03038 20.7064 9.05241C20.7631 9.07443 20.8149 9.10729 20.8588 9.14892C20.9026 9.19054 20.9376 9.23994 20.9619 9.29483C20.9861 9.34972 20.9991 9.4091 21 9.46889L21 17.5091C20.9804 18.7168 20.4726 19.8676 19.5879 20.7094C18.7033 21.5511 17.5139 22.015 16.2804 21.9996L7.95145 21.9973ZM8.43209 12.9863C8.43651 13.1863 8.52162 13.3767 8.66889 13.5154C8.81616 13.6541 9.01358 13.7303 9.21788 13.7268L11.0202 13.7268L11.0202 15.4571C11.0216 15.6545 11.101 15.844 11.2416 15.9856C11.3822 16.1272 11.5731 16.2101 11.7746 16.2171C11.9762 16.2241 12.1727 16.1544 12.3232 16.0229C12.4736 15.8914 12.5664 15.708 12.5821 15.5111C12.5821 15.4934 12.5821 15.4747 12.5821 15.4571L12.5821 13.7268L14.3965 13.7268C14.499 13.7308 14.6012 13.7142 14.6971 13.6785C14.793 13.6429 14.8806 13.5884 14.9545 13.5188C15.0285 13.4492 15.0873 13.366 15.1275 13.2736C15.1677 13.1811 15.1885 13.0816 15.1885 12.9812C15.1885 12.8807 15.1677 12.7812 15.1275 12.6888C15.0873 12.5963 15.0285 12.5131 14.9545 12.4435C14.8806 12.3739 14.793 12.3194 14.6971 12.2838C14.6012 12.2481 14.499 12.2321 14.3965 12.2361L12.5857 12.2361L12.5857 10.5052C12.5843 10.3078 12.505 10.1183 12.3644 9.97672C12.2238 9.83514 12.0328 9.75219 11.8313 9.74521C11.6297 9.73822 11.4332 9.80788 11.2827 9.93937C11.1323 10.0709 11.0395 10.2544 11.0238 10.4512C11.0238 10.4689 11.0238 10.4876 11.0238 10.5052L11.0238 12.2361L9.22147 12.2361C9.11938 12.2344 9.01791 12.2522 8.92292 12.2889C8.82794 12.3256 8.74128 12.3803 8.66786 12.4498C8.59445 12.5193 8.53575 12.6022 8.49509 12.6939C8.45442 12.7856 8.43257 12.8841 8.43085 12.984L8.43209 12.9863ZM17.4556 7.55593C16.9021 7.56099 16.369 7.35188 15.9723 6.974C15.5756 6.59613 15.3474 6.07968 15.3373 5.53785L15.3373 2.90279C15.3373 2.77538 15.3888 2.65292 15.4807 2.56271C15.5726 2.4725 15.6973 2.4217 15.8274 2.42139C15.8963 2.42014 15.9647 2.43289 16.0285 2.45816C16.0923 2.48343 16.1502 2.52071 16.1987 2.56846L20.4209 6.75571C20.4658 6.80057 20.5012 6.85409 20.5248 6.91254C20.5484 6.97098 20.5598 7.03353 20.5584 7.09636C20.5569 7.1592 20.5426 7.22056 20.5163 7.27789C20.49 7.33523 20.4522 7.38731 20.4053 7.43013C20.3117 7.51489 20.1891 7.56207 20.0616 7.56283L19.378 7.56283C18.7027 7.56518 17.9999 7.56182 17.4556 7.55593Z"   fill="#90b6e7" >
</path>
</svg>
