<svg xmlns="http://www.w3.org/2000/svg" width="60" height="60" viewBox="0 0 24 24" fill="none">
<path d="M20.5 10.19L17.61 10.19C15.24 10.19 13.31 8.26 13.31 5.89L13.31 3C13.31 2.45 12.86 2 12.31 2L8.07 2C4.99 2 2.5 4 2.5 7.57L2.5 16.43C2.5 20 4.99 22 8.07 22L15.93 22C19.01 22 21.5 20 21.5 16.43L21.5 11.19C21.5 10.64 21.05 10.19 20.5 10.19Z"   fill="rgb(144, 182, 231)" >
</path>
<path d="M15.8 2.21C15.39 1.8 14.68 2.08 14.68 2.65L14.68 6.14C14.68 7.6 15.92 8.81 17.43 8.81C18.38 8.82 19.7 8.82 20.83 8.82C21.4 8.82 21.7 8.15 21.3 7.75C19.86 6.3 17.28 3.69 15.8 2.21Z"   fill="rgb(144, 182, 231)" >
</path>
<g opacity="0">
</g>
<path   fill-rule="evenodd"  fill="#292D32"  d="M7.688 19.091C7.35667 19.091 7.04517 19.0257 6.7535 18.895C6.46183 18.762 6.20517 18.5788 5.9835 18.3455C5.76417 18.1122 5.5915 17.8427 5.4655 17.537C5.34183 17.229 5.28 16.9 5.28 16.55C5.28 16.1977 5.34183 15.8687 5.4655 15.563C5.5915 15.255 5.76417 14.9855 5.9835 14.7545C6.20517 14.5212 6.46183 14.3392 6.7535 14.2085C7.04517 14.0755 7.35667 14.009 7.688 14.009C8.08467 14.009 8.44983 14.1012 8.7835 14.2855C9.11717 14.4675 9.39367 14.7113 9.613 15.017L8.85 15.4265C8.71233 15.2562 8.54083 15.1197 8.3355 15.017C8.1325 14.9143 7.91667 14.863 7.688 14.863C7.47333 14.863 7.2715 14.9073 7.0825 14.996C6.8935 15.0823 6.72783 15.2037 6.5855 15.36C6.44317 15.514 6.33233 15.6937 6.253 15.899C6.17367 16.102 6.134 16.319 6.134 16.55C6.134 16.7833 6.17367 17.0015 6.253 17.2045C6.33467 17.4075 6.44667 17.5872 6.589 17.7435C6.73133 17.8975 6.89583 18.0188 7.0825 18.1075C7.2715 18.1938 7.47333 18.237 7.688 18.237C7.92133 18.237 8.13833 18.1857 8.339 18.083C8.542 17.978 8.71233 17.8403 8.85 17.67L9.613 18.083C9.39367 18.3863 9.11717 18.6302 8.7835 18.8145C8.44983 18.9988 8.08467 19.091 7.688 19.091ZM12.1469 19.091C11.8762 19.091 11.6161 19.049 11.3664 18.965C11.1191 18.8787 10.9021 18.7562 10.7154 18.5975C10.5287 18.4365 10.3946 18.244 10.3129 18.02L11.1144 17.726C11.1471 17.8193 11.2136 17.9045 11.3139 17.9815C11.4142 18.0585 11.5367 18.1203 11.6814 18.167C11.8261 18.2137 11.9812 18.237 12.1469 18.237C12.3172 18.237 12.4759 18.2113 12.6229 18.16C12.7722 18.1063 12.8924 18.0328 12.9834 17.9395C13.0744 17.8438 13.1199 17.733 13.1199 17.607C13.1199 17.4787 13.0721 17.3737 12.9764 17.292C12.8807 17.208 12.7582 17.1415 12.6089 17.0925C12.4596 17.0435 12.3056 17.0062 12.1469 16.9805C11.7992 16.9268 11.4877 16.844 11.2124 16.732C10.9371 16.62 10.7189 16.4648 10.5579 16.2665C10.3992 16.0682 10.3199 15.8115 10.3199 15.4965C10.3199 15.2002 10.4051 14.9412 10.5754 14.7195C10.7457 14.4978 10.9697 14.3252 11.2474 14.2015C11.5251 14.0778 11.8249 14.016 12.1469 14.016C12.4152 14.016 12.6742 14.058 12.9239 14.142C13.1736 14.226 13.3917 14.3485 13.5784 14.5095C13.7674 14.6705 13.9027 14.8642 13.9844 15.0905L13.1794 15.381C13.1467 15.2877 13.0802 15.2025 12.9799 15.1255C12.8796 15.0485 12.7571 14.9878 12.6124 14.9435C12.4677 14.8968 12.3126 14.8735 12.1469 14.8735C11.9812 14.8712 11.8237 14.898 11.6744 14.954C11.5274 15.0077 11.4072 15.0812 11.3139 15.1745C11.2206 15.2678 11.1739 15.3752 11.1739 15.4965C11.1739 15.6528 11.2171 15.7707 11.3034 15.85C11.3921 15.9293 11.5099 15.9877 11.6569 16.025C11.8039 16.06 11.9672 16.0927 12.1469 16.123C12.4736 16.1743 12.7757 16.2607 13.0534 16.382C13.3311 16.5033 13.5539 16.6655 13.7219 16.8685C13.8899 17.0692 13.9739 17.3153 13.9739 17.607C13.9739 17.9033 13.8899 18.1635 13.7219 18.3875C13.5539 18.6092 13.3311 18.7818 13.0534 18.9055C12.7757 19.0292 12.4736 19.091 12.1469 19.091ZM16.2353 19L14.4573 14.1L15.3638 14.1L16.7813 18.0025L18.2023 14.1L19.1053 14.1L17.3273 19L16.2353 19Z">
</path>
</svg>
