<svg xmlns="http://www.w3.org/2000/svg" width="60" height="60" viewBox="0 0 24 24" fill="none">
<path    stroke="rgb(144, 182, 231)" stroke-width="2" stroke-linejoin="round" stroke-linecap="round"  d="M3 6L5 6L21 6">
</path>
<path    stroke="rgb(144, 182, 231)" stroke-width="2" stroke-linejoin="round" stroke-linecap="round"  d="M19 6L19 20C19 20.5304 18.7893 21.0391 18.4142 21.4142C18.0391 21.7893 17.5304 22 17 22L7 22C6.46957 22 5.96086 21.7893 5.58579 21.4142C5.21071 21.0391 5 20.5304 5 20L5 6L19 6ZM8 6L8 4C8 3.46957 8.21071 2.96086 8.58579 2.58579C8.96086 2.21071 9.46957 2 10 2L14 2C14.5304 2 15.0391 2.21071 15.4142 2.58579C15.7893 2.96086 16 3.46957 16 4L16 6">
</path>
<path    stroke="rgb(144, 182, 231)" stroke-width="2" stroke-linejoin="round" stroke-linecap="round"  d="M10 11L10 17">
</path>
<path    stroke="rgb(144, 182, 231)" stroke-width="2" stroke-linejoin="round" stroke-linecap="round"  d="M14 11L14 17">
</path>
</svg>
