<svg xmlns="http://www.w3.org/2000/svg" width="60" height="60" viewBox="0 0 24 24" fill="none">
  <path stroke="rgba(144, 182, 231, 1)" stroke-width="1.5" stroke-linejoin="round" stroke-linecap="round"
        d="M11.4922 2.78906L7.75324 2.78906C4.67824 2.78906 2.75024 4.96606 2.75024 8.04806L2.75024 16.3621C2.75024 19.4441 4.66924 21.6211 7.75324 21.6211L16.5772 21.6211C19.6622 21.6211 21.5812 19.4441 21.5812 16.3621L21.5812 12.3341"/>

  <path d="M8.82774 10.921L16.3007 3.44799C17.2317 2.51799 18.7407 2.51799 19.6717 3.44799L20.8887 4.66499C21.8197 5.59599 21.8197 7.10599 20.8887 8.03599L13.3797 15.545C12.9727 15.952 12.4207 16.181 11.8447 16.181L8.09874 16.181L8.19274 12.401C8.20674 11.845 8.43374 11.315 8.82774 10.921Z"
        stroke="rgba(144, 182, 231, 1)" stroke-width="1.5" stroke-linejoin="round" stroke-linecap="round" fill="none"/>

  <path stroke="rgba(144, 182, 231, 1)" stroke-width="1.5" stroke-linejoin="round" stroke-linecap="round"
        d="M15.165 4.60254L19.731 9.16854"/>
</svg>
