<svg xmlns="http://www.w3.org/2000/svg" width="60" height="60" viewBox="0 0 24 24" fill="none">
<path d="M16.19 2L7.81 2C4.17 2 2 4.17 2 7.81L2 16.18C2 19.83 4.17 22 7.81 22L16.18 22C19.82 22 21.99 19.83 21.99 16.19L21.99 7.81C22 4.17 19.83 2 16.19 2ZM6.5 12.57L9.27 12.57C9.68 12.57 10.02 12.91 10.02 13.32C10.02 13.73 9.68 14.07 9.27 14.07L6.5 14.07C6.09 14.07 5.75 13.73 5.75 13.32C5.75 12.91 6.09 12.57 6.5 12.57ZM12.97 17.83L6.5 17.83C6.09 17.83 5.75 17.49 5.75 17.08C5.75 16.67 6.09 16.33 6.5 16.33L12.97 16.33C13.38 16.33 13.72 16.67 13.72 17.08C13.72 17.49 13.39 17.83 12.97 17.83ZM17.5 17.83L15.65 17.83C15.24 17.83 14.9 17.49 14.9 17.08C14.9 16.67 15.24 16.33 15.65 16.33L17.5 16.33C17.91 16.33 18.25 16.67 18.25 17.08C18.25 17.49 17.91 17.83 17.5 17.83ZM17.5 14.07L11.97 14.07C11.56 14.07 11.22 13.73 11.22 13.32C11.22 12.91 11.56 12.57 11.97 12.57L17.5 12.57C17.91 12.57 18.25 12.91 18.25 13.32C18.25 13.73 17.91 14.07 17.5 14.07Z"   fill="rgba(144, 182, 231, 1)" >
</path>
<g opacity="0">
</g>
</svg>
