<svg xmlns="http://www.w3.org/2000/svg" xmlns:xlink="http://www.w3.org/1999/xlink" width="60" height="60" viewBox="0 0 24 24" fill="none">
<path     fill="#90b6e7"  d="M21.017 7.992C21.415 8.558 20.941 9.25 20.248 9.25L3 9.25C2.448 9.25 2 8.802 2 8.25L2 6.42C2 3.98 3.98 2 6.42 2L8.74 2C10.37 2 10.88 2.53 11.53 3.4L12.93 5.26C13.24 5.67 13.28 5.72 13.86 5.72L16.65 5.72C18.455 5.72 20.052 6.617 21.017 7.992Z">
</path>
<path     fill="#90b6e7"  d="M21.983 11.7466C21.982 11.1956 21.534 10.7496 20.983 10.7496L3 10.7496C2.448 10.7496 2 11.1976 2 11.7496L2 16.6496C2 19.5996 4.4 21.9996 7.35 21.9996L16.65 21.9996C19.6 21.9996 22 19.5996 22 16.6496L21.983 11.7466ZM14.5 16.7496L12.81 16.7496L12.81 18.4996C12.81 18.9096 12.47 19.2496 12.06 19.2496C11.64 19.2496 11.31 18.9096 11.31 18.4996L11.31 16.7496L9.5 16.7496C9.09 16.7496 8.75 16.4096 8.75 15.9996C8.75 15.5896 9.09 15.2496 9.5 15.2496L11.31 15.2496L11.31 13.4996C11.31 13.0896 11.64 12.7496 12.06 12.7496C12.47 12.7496 12.81 13.0896 12.81 13.4996L12.81 15.2496L14.5 15.2496C14.91 15.2496 15.25 15.5896 15.25 15.9996C15.25 16.4096 14.91 16.7496 14.5 16.7496Z">
</path>
<g opacity="0">
</g>
</svg>
