<svg xmlns="http://www.w3.org/2000/svg" xmlns:xlink="http://www.w3.org/1999/xlink" width="60" height="60" viewBox="0 0 24 24" fill="none">
<path d="M19 21L5 21C4.46957 21 3.96086 20.7893 3.58579 20.4142C3.21071 20.0391 3 19.5304 3 19L3 5C3 4.46957 3.21071 3.96086 3.58579 3.58579C3.96086 3.21071 4.46957 3 5 3L16 3L21 8L21 19C21 19.5304 20.7893 20.0391 20.4142 20.4142C20.0391 20.7893 19.5304 21 19 21Z" stroke="#90b6e7" stroke-width="2" stroke-linejoin="round" stroke-linecap="round" >
</path>
<path    stroke="#90b6e7" stroke-width="2" stroke-linejoin="round" stroke-linecap="round"  d="M17 21L17 13L7 13L7 21">
</path>
<path    stroke="#90b6e7" stroke-width="2" stroke-linejoin="round" stroke-linecap="round"  d="M7 3L7 8L15 8">
</path>
</svg>
