<svg xmlns="http://www.w3.org/2000/svg" xmlns:xlink="http://www.w3.org/1999/xlink" width="60" height="60" viewBox="0 0 24 24" fill="none">
<path d="M11 9L20 9C21.1046 9 22 9.89543 22 11L22 20C22 21.1046 21.1046 22 20 22L11 22C9.89543 22 9 21.1046 9 20L9 11C9 9.89543 9.89543 9 11 9Z" stroke="#90b6e7" stroke-width="2" stroke-linejoin="round" stroke-linecap="round" >
</path>
<path    stroke="#90b6e7" stroke-width="2" stroke-linejoin="round" stroke-linecap="round"  d="M5 15L4 15C3.46957 15 2.96086 14.7893 2.58579 14.4142C2.21071 14.0391 2 13.5304 2 13L2 4C2 3.46957 2.21071 2.96086 2.58579 2.58579C2.96086 2.21071 3.46957 2 4 2L13 2C13.5304 2 14.0391 2.21071 14.4142 2.58579C14.7893 2.96086 15 3.46957 15 4L15 5">
</path>
</svg>
