<svg xmlns="http://www.w3.org/2000/svg" xmlns:xlink="http://www.w3.org/1999/xlink" width="24" height="24" viewBox="0 0 24 24" fill="none">
<path d="M11.25 12.75L11.25 22L7.81 22C4.17 22 2 19.83 2 16.19L2 12.75L11.25 12.75L11.25 12.75Z"   fill="#ffffff" >
</path>
<path d="M22 7.81L22 11.25L12.75 11.25L12.75 2L16.19 2C19.83 2 22 4.17 22 7.81Z"   fill="#ffffff" >
</path>
<path d="M11.25 2L11.25 11.25L2 11.25L2 7.81C2 4.17 4.17 2 7.81 2L11.25 2Z"   fill="#ffffff" >
</path>
<path d="M22 12.75L22 16.19C22 19.83 19.83 22 16.19 22L12.75 22L12.75 12.75L22 12.75Z"   fill="#ffffff" >
</path>
<g opacity="0">
</g>
</svg>
