<svg xmlns="http://www.w3.org/2000/svg" xmlns:xlink="http://www.w3.org/1999/xlink" width="18" height="18" viewBox="0 0 24 24" fill="none">
<g opacity="0">
</g>
<path d="M16.19 2L7.81 2C4.17 2 2 4.17 2 7.81L2 16.18C2 19.83 4.17 22 7.81 22L16.18 22C19.82 22 21.99 19.83 21.99 16.19L21.99 7.81C22 4.17 19.83 2 16.19 2ZM9.11 16.9C9.11 17.18 8.89 17.4 8.61 17.4L5.82 17.4C5.54 17.4 5.32 17.18 5.32 16.9L5.32 12.28C5.32 11.65 5.83 11.14 6.46 11.14L8.61 11.14C8.89 11.14 9.11 11.36 9.11 11.64L9.11 16.9ZM13.89 16.9C13.89 17.18 13.67 17.4 13.39 17.4L10.6 17.4C10.32 17.4 10.1 17.18 10.1 16.9L10.1 7.74C10.1 7.11 10.61 6.6 11.24 6.6L12.76 6.6C13.39 6.6 13.9 7.11 13.9 7.74L13.9 16.9L13.89 16.9ZM18.68 16.9C18.68 17.18 18.46 17.4 18.18 17.4L15.39 17.4C15.11 17.4 14.89 17.18 14.89 16.9L14.89 13.35C14.89 13.07 15.11 12.85 15.39 12.85L17.54 12.85C18.17 12.85 18.68 13.36 18.68 13.99L18.68 16.9Z"   fill="#ffffff" >
</path>
</svg>
