<svg xmlns="http://www.w3.org/2000/svg" xmlns:xlink="http://www.w3.org/1999/xlink" width="18" height="18" viewBox="0 0 24 24" fill="none">
<path d="M8.05 10.14L8.05 11.3L11.31 11.3L11.31 8.05L10.15 8.05C8.99 8.05 8.05 8.99 8.05 10.14Z"   fill="#ffffff" >
</path>
<path d="M8.05 13.86C8.05 15.01 8.99 15.95 10.14 15.95L11.3 15.95L11.3 12.7L8.05 12.7L8.05 13.86Z"   fill="#ffffff" >
</path>
<path d="M12.7 15.95L13.86 15.95C15.01 15.95 15.95 15.01 15.95 13.86L15.95 12.7L12.7 12.7L12.7 15.95Z"   fill="#ffffff" >
</path>
<path d="M16.19 2L7.81 2C4.17 2 2 4.17 2 7.81L2 16.18C2 19.83 4.17 22 7.81 22L16.18 22C19.82 22 21.99 19.83 21.99 16.19L21.99 7.81C22 4.17 19.83 2 16.19 2ZM17.35 13.86C17.35 15.78 15.78 17.35 13.86 17.35L10.14 17.35C8.22 17.35 6.65 15.79 6.65 13.86L6.65 10.14C6.65 8.22 8.22 6.65 10.14 6.65L13.86 6.65C15.78 6.65 17.35 8.21 17.35 10.14L17.35 13.86Z"   fill="#ffffff" >
</path>
<path d="M13.86 8.05L12.7 8.05L12.7 11.31L15.96 11.31L15.96 10.15C15.95 8.99 15.01 8.05 13.86 8.05Z"   fill="#ffffff" >
</path>
<g opacity="0">
</g>
</svg>
